<svg width="1920" xmlns="http://www.w3.org/2000/svg" height="1080" id="screenshot-52479b70-8d5f-8078-8006-9b19ad0c4574" viewBox="0 0 1920 1080" xmlns:xlink="http://www.w3.org/1999/xlink" fill="none" version="1.1"><style>@font-face {
    font-family: 'sourcesanspro';
    font-style: normal;
    font-weight: 400;
    font-display: block;
    src: url(http://localhost:6080/fonts/sourcesanspro-regular.woff) format('woff');
  }</style><g id="shape-52479b70-8d5f-8078-8006-9b19ad0c4574"><defs><clipPath id="frame-clip-52479b70-8d5f-8078-8006-9b19ad0c4574-render-1" class="frame-clip frame-clip-def"><rect rx="0" ry="0" x="0" y="0" width="1919.9999999999995" height="1080" transform="matrix(1.000000, 0.000000, 0.000000, 1.000000, 0.000000, 0.000000)"/></clipPath></defs><g class="frame-container-wrapper"><g class="frame-container-blur"><g class="frame-container-shadows"><g clip-path="url(#frame-clip-52479b70-8d5f-8078-8006-9b19ad0c4574-render-1)" fill="none"><g class="fills" id="fills-52479b70-8d5f-8078-8006-9b19ad0c4574"><rect width="1919.9999999999995" height="1080" class="frame-background" x="0" transform="matrix(1.000000, 0.000000, 0.000000, 1.000000, 0.000000, 0.000000)" style="fill: rgb(228, 126, 126); fill-opacity: 1;" ry="0" rx="0" y="0"/></g><g class="frame-children"><g id="shape-52479b70-8d5f-8078-8006-9b19d12c421d"><g class="fills" id="fills-52479b70-8d5f-8078-8006-9b19d12c421d"><rect rx="0" ry="0" x="0" y="-1.4210854715202004e-14" transform="matrix(1.000000, 0.000000, 0.000000, 1.000000, 0.000000, 0.000000)" width="1920" height="130" style="fill: rgb(177, 178, 181); fill-opacity: 1;"/></g></g><g id="shape-52479b70-8d5f-8078-8006-9b1bc1341998" style="mix-blend-mode: darken;"><defs><filter id="filter-render-3" x="-0.12698412698412698" y="-0.72" width="1.380151147529355" height="3.155457006491444" filterUnits="objectBoundingBox" color-interpolation-filters="sRGB"><feFlood flood-opacity="0" result="BackgroundImageFix"/><feColorMatrix in="SourceAlpha" type="matrix" values="0 0 0 0 0 0 0 0 0 0 0 0 0 0 0 0 0 0 127 0"/><feOffset dx="61.5457006491444" dy="61.5457006491444"/><feGaussianBlur stdDeviation="0"/><feColorMatrix type="matrix" values="0 0 0 0 0.050980392156862744 0 0 0 0 0.050980392156862744 0 0 0 0 0.050980392156862744 0 0 0 0.02 0"/><feBlend mode="normal" in2="BackgroundImageFix" result="filter_52479b70-8d5f-8078-8006-9b1c6c4e142c"/><feBlend mode="normal" in="SourceGraphic" in2="filter_52479b70-8d5f-8078-8006-9b1c6c4e142c" result="shape"/></filter><filter id="filter-shadow-render-3" x="-0.12698412698412698" y="-0.72" width="1.380151147529355" height="3.155457006491444" filterUnits="objectBoundingBox" color-interpolation-filters="sRGB"><feFlood flood-opacity="0" result="BackgroundImageFix"/><feColorMatrix in="SourceAlpha" type="matrix" values="0 0 0 0 0 0 0 0 0 0 0 0 0 0 0 0 0 0 127 0"/><feOffset dx="61.5457006491444" dy="61.5457006491444"/><feGaussianBlur stdDeviation="0"/><feColorMatrix type="matrix" values="0 0 0 0 0.050980392156862744 0 0 0 0 0.050980392156862744 0 0 0 0 0.050980392156862744 0 0 0 0.02 0"/><feBlend mode="normal" in2="BackgroundImageFix" result="filter_52479b70-8d5f-8078-8006-9b1c6c4e142c"/><feBlend mode="normal" in="SourceGraphic" in2="filter_52479b70-8d5f-8078-8006-9b1c6c4e142c" result="shape"/></filter></defs><g width="567" height="100" class="text-container" x="50" transform="matrix(1.000000, 0.000000, 0.000000, 1.000000, 0.000000, 0.000000)" ry="0" rx="0" filter="url(#filter-render-3)" y="17"><defs><pattern patternUnits="objectBoundingBox" width="479.6499938964844" height="101.5999984741211" id="fill-0-render-3-0"><g><rect width="479.6499938964844" height="101.5999984741211" style="fill: rgb(0, 0, 0); fill-opacity: 1;"/></g></pattern></defs><g class="fills" id="fills-52479b70-8d5f-8078-8006-9b1bc1341998"><text x="50" y="114.5999984741211" dominant-baseline="ideographic" textLength="479.6499938964844" lengthAdjust="spacingAndGlyphs" style="text-transform: none; font-family: sourcesanspro; letter-spacing: normal; font-style: normal; font-weight: 400; white-space: pre; font-size: 78.3309px; text-decoration: none solid rgb(0, 0, 0); direction: ltr; fill: rgb(0, 0, 0); fill-opacity: 1;">WebSite Name</text></g></g></g><g id="shape-52479b70-8d5f-8078-8006-9b1d96a5c063"><g class="fills" id="fills-52479b70-8d5f-8078-8006-9b1d96a5c063"><rect rx="0" ry="0" x="805" y="14.999999999999986" transform="matrix(1.000000, 0.000000, 0.000000, 1.000000, 0.000000, 0.000000)" width="1100" height="100.00000000000001" style="fill: rgb(216, 220, 231); fill-opacity: 1;"/></g><g id="strokes-8ffdc742-4582-805a-8006-9b2e6e48f0c6-52479b70-8d5f-8078-8006-9b1d96a5c063" class="strokes"><g class="inner-stroke-shape" transform="matrix(1.000000, 0.000000, 0.000000, 1.000000, 0.000000, 0.000000)"><defs><clipPath id="inner-stroke-render-4-52479b70-8d5f-8078-8006-9b1d96a5c063-0"><use href="#stroke-shape-render-4-52479b70-8d5f-8078-8006-9b1d96a5c063-0"/></clipPath><rect rx="0" ry="0" x="805" y="14.999999999999986" width="1100" height="100.00000000000001" id="stroke-shape-render-4-52479b70-8d5f-8078-8006-9b1d96a5c063-0" style="fill: none; stroke-width: 2; stroke: rgb(213, 69, 69); stroke-opacity: 1;"/></defs><use href="#stroke-shape-render-4-52479b70-8d5f-8078-8006-9b1d96a5c063-0" clip-path="url('#inner-stroke-render-4-52479b70-8d5f-8078-8006-9b1d96a5c063-0')"/></g></g></g><g id="shape-52479b70-8d5f-8078-8006-9b22872981a3"><g class="fills" id="fills-52479b70-8d5f-8078-8006-9b22872981a3"><rect rx="0" ry="0" x="-1.1368683772161603e-13" y="130.00000000000023" transform="matrix(1.000000, 0.000000, 0.000000, 1.000000, 0.000000, 0.000000)" width="382.0000000000003" height="949.9999999999995" style="fill: rgb(213, 69, 69); fill-opacity: 1;"/></g></g><g id="shape-52479b70-8d5f-8078-8006-9b22f4fa8c00"><g class="fills" id="fills-52479b70-8d5f-8078-8006-9b22f4fa8c00"><ellipse cx="191.49999999999997" cy="298" rx="131.49999999999997" ry="127" transform="matrix(1.000000, 0.000000, 0.000000, 1.000000, 0.000000, 0.000000)" style="fill: rgb(177, 178, 181); fill-opacity: 1;"/></g></g><g id="shape-52479b70-8d5f-8078-8006-9b2328216e99"><g transform="matrix(1.000000, 0.000000, 0.000000, 1.000000, 0.000000, 0.000000)" class="text-container" x="60" y="468" width="263" height="47" rx="0" ry="0"><defs><pattern patternUnits="objectBoundingBox" width="260.88751220703125" height="50.400001525878906" id="fill-0-render-7-0"><g><rect width="260.88751220703125" height="50.400001525878906" style="fill: rgb(250, 250, 250); fill-opacity: 1;"/></g></pattern></defs><g class="fills" id="fills-52479b70-8d5f-8078-8006-9b2328216e99"><text x="60" y="516.0000014305115" dominant-baseline="ideographic" textLength="260.88751220703125" lengthAdjust="spacingAndGlyphs" style="text-transform: none; font-family: sourcesanspro; letter-spacing: normal; font-style: normal; font-weight: 400; white-space: pre; font-size: 38.7478px; text-decoration: none solid rgb(250, 250, 250); direction: ltr; fill: rgb(250, 250, 250); fill-opacity: 1;">Your Name Here</text></g></g></g><g id="shape-52479b70-8d5f-8078-8006-9b23df94ce6f"><g class="fills" id="fills-52479b70-8d5f-8078-8006-9b23df94ce6f"><rect rx="0" ry="0" x="36" y="528.9999999999998" transform="matrix(1.000000, 0.000000, 0.000000, 1.000000, 0.000000, 0.000000)" width="310" height="402.9999999999998" style="fill: rgb(177, 178, 181); fill-opacity: 1;"/></g></g><g id="shape-52479b70-8d5f-8078-8006-9b245d7f47e0"><g class="frame-container-wrapper"><g class="frame-container-blur"><g class="frame-container-shadows"><g fill="none"><g class="fills" id="fills-52479b70-8d5f-8078-8006-9b245d7f47e0"><rect rx="0" ry="0" x="36" y="957" width="75.99999999999999" height="79" transform="matrix(1.000000, 0.000000, 0.000000, 1.000000, 0.000000, 0.000000)" class="frame-background"/></g><g class="frame-children"><g id="shape-52479b70-8d5f-8078-8006-9b243d648fc6"><g class="fills" id="fills-52479b70-8d5f-8078-8006-9b243d648fc6"><ellipse cx="74" cy="996.5" rx="37.99999999999999" ry="39.5" transform="matrix(1.000000, 0.000000, 0.000000, 1.000000, 0.000000, 0.000000)" style="fill: rgb(177, 178, 181); fill-opacity: 1;"/></g></g></g></g></g></g></g></g><g id="shape-52479b70-8d5f-8078-8006-9b24797ea560"><g class="frame-container-wrapper"><g class="frame-container-blur"><g class="frame-container-shadows"><g fill="none"><g class="fills" id="fills-52479b70-8d5f-8078-8006-9b24797ea560"><rect rx="0" ry="0" x="153" y="957" width="76" height="79" transform="matrix(1.000000, 0.000000, 0.000000, 1.000000, 0.000000, 0.000000)" class="frame-background"/></g><g class="frame-children"><g id="shape-52479b70-8d5f-8078-8006-9b24797ea561"><g class="fills" id="fills-52479b70-8d5f-8078-8006-9b24797ea561"><ellipse cx="191" cy="996.5" rx="38" ry="39.5" transform="matrix(1.000000, 0.000000, 0.000000, 1.000000, 0.000000, 0.000000)" style="fill: rgb(177, 178, 181); fill-opacity: 1;"/></g></g></g></g></g></g></g></g><g id="shape-52479b70-8d5f-8078-8006-9b248c75a67b"><g class="frame-container-wrapper"><g class="frame-container-blur"><g class="frame-container-shadows"><g fill="none"><g class="fills" id="fills-52479b70-8d5f-8078-8006-9b248c75a67b"><rect rx="0" ry="0" x="270" y="956" width="76" height="79" transform="matrix(1.000000, 0.000000, 0.000000, 1.000000, 0.000000, 0.000000)" class="frame-background"/></g><g class="frame-children"><g id="shape-52479b70-8d5f-8078-8006-9b248c75a67c"><g class="fills" id="fills-52479b70-8d5f-8078-8006-9b248c75a67c"><ellipse cx="308" cy="995.5" rx="38" ry="39.5" transform="matrix(1.000000, 0.000000, 0.000000, 1.000000, 0.000000, 0.000000)" style="fill: rgb(177, 178, 181); fill-opacity: 1;"/></g></g></g></g></g></g></g></g><g id="shape-52479b70-8d5f-8078-8006-9b28b4125b53"><g class="fills" id="fills-52479b70-8d5f-8078-8006-9b28b4125b53"><rect rx="0" ry="0" x="1654" y="130.00000000000003" transform="matrix(1.000000, 0.000000, 0.000000, 1.000000, 0.000000, 0.000000)" width="265" height="950.0000000000002" style="fill: rgb(177, 178, 181); fill-opacity: 1;"/></g></g><g id="shape-52479b70-8d5f-8078-8006-9b2d04785caf"><g class="frame-container-wrapper"><g class="frame-container-blur"><g class="frame-container-shadows"><g fill="none"><g class="fills" id="fills-52479b70-8d5f-8078-8006-9b2d04785caf"><rect rx="0" ry="0" x="1670" y="145" width="233" height="70" transform="matrix(1.000000, 0.000000, 0.000000, 1.000000, 0.000000, 0.000000)" class="frame-background"/></g><g class="frame-children"><g id="shape-52479b70-8d5f-8078-8006-9b2cafa1070f"><g class="fills" id="fills-52479b70-8d5f-8078-8006-9b2cafa1070f"><rect rx="0" ry="0" x="1670" y="145" transform="matrix(1.000000, 0.000000, 0.000000, 1.000000, 0.000000, 0.000000)" width="233" height="70" style="fill: rgb(211, 192, 192); fill-opacity: 1;"/></g></g></g></g></g></g></g></g><g id="shape-52479b70-8d5f-8078-8006-9b2d060ab1fa"><g class="frame-container-wrapper"><g class="frame-container-blur"><g class="frame-container-shadows"><g fill="none"><g class="fills" id="fills-52479b70-8d5f-8078-8006-9b2d060ab1fa"><rect rx="0" ry="0" x="1670" y="230" width="233" height="70" transform="matrix(1.000000, 0.000000, 0.000000, 1.000000, 0.000000, 0.000000)" class="frame-background"/></g><g class="frame-children"><g id="shape-52479b70-8d5f-8078-8006-9b2d060ab1fb"><g class="fills" id="fills-52479b70-8d5f-8078-8006-9b2d060ab1fb"><rect rx="0" ry="0" x="1670" y="230" transform="matrix(1.000000, 0.000000, 0.000000, 1.000000, 0.000000, 0.000000)" width="233" height="70" style="fill: rgb(211, 192, 192); fill-opacity: 1;"/></g></g></g></g></g></g></g></g><g id="shape-52479b70-8d5f-8078-8006-9b2d0c68fbd6"><g class="frame-container-wrapper"><g class="frame-container-blur"><g class="frame-container-shadows"><g fill="none"><g class="fills" id="fills-52479b70-8d5f-8078-8006-9b2d0c68fbd6"><rect rx="0" ry="0" x="1669" y="315" width="233" height="70" transform="matrix(1.000000, 0.000000, 0.000000, 1.000000, 0.000000, 0.000000)" class="frame-background"/></g><g class="frame-children"><g id="shape-52479b70-8d5f-8078-8006-9b2d0c68fbd7"><g class="fills" id="fills-52479b70-8d5f-8078-8006-9b2d0c68fbd7"><rect rx="0" ry="0" x="1669" y="315" transform="matrix(1.000000, 0.000000, 0.000000, 1.000000, 0.000000, 0.000000)" width="233" height="70" style="fill: rgb(211, 192, 192); fill-opacity: 1;"/></g></g></g></g></g></g></g></g><g id="shape-52479b70-8d5f-8078-8006-9b2d4a6f5c5b"><g class="frame-container-wrapper"><g class="frame-container-blur"><g class="frame-container-shadows"><g fill="none"><g class="fills" id="fills-52479b70-8d5f-8078-8006-9b2d4a6f5c5b"><rect rx="0" ry="0" x="1670" y="400" width="233" height="70" transform="matrix(1.000000, 0.000000, 0.000000, 1.000000, 0.000000, 0.000000)" class="frame-background"/></g><g class="frame-children"><g id="shape-52479b70-8d5f-8078-8006-9b2d4a6f92aa"><g class="fills" id="fills-52479b70-8d5f-8078-8006-9b2d4a6f92aa"><rect rx="0" ry="0" x="1670" y="400" transform="matrix(1.000000, 0.000000, 0.000000, 1.000000, 0.000000, 0.000000)" width="233" height="70" style="fill: rgb(211, 192, 192); fill-opacity: 1;"/></g></g></g></g></g></g></g></g><g id="shape-52479b70-8d5f-8078-8006-9b2d68b10fe4"><g class="frame-container-wrapper"><g class="frame-container-blur"><g class="frame-container-shadows"><g fill="none"><g class="fills" id="fills-52479b70-8d5f-8078-8006-9b2d68b10fe4"><rect rx="0" ry="0" x="1670" y="485" width="233" height="70" transform="matrix(1.000000, 0.000000, 0.000000, 1.000000, 0.000000, 0.000000)" class="frame-background"/></g><g class="frame-children"><g id="shape-52479b70-8d5f-8078-8006-9b2d68b10fe5"><g class="fills" id="fills-52479b70-8d5f-8078-8006-9b2d68b10fe5"><rect rx="0" ry="0" x="1670" y="485" transform="matrix(1.000000, 0.000000, 0.000000, 1.000000, 0.000000, 0.000000)" width="233" height="70" style="fill: rgb(211, 192, 192); fill-opacity: 1;"/></g></g></g></g></g></g></g></g><g id="shape-52479b70-8d5f-8078-8006-9b2d734e4f70"><g class="frame-container-wrapper"><g class="frame-container-blur"><g class="frame-container-shadows"><g fill="none"><g class="fills" id="fills-52479b70-8d5f-8078-8006-9b2d734e4f70"><rect rx="0" ry="0" x="1670" y="570" width="233" height="70" transform="matrix(1.000000, 0.000000, 0.000000, 1.000000, 0.000000, 0.000000)" class="frame-background"/></g><g class="frame-children"><g id="shape-52479b70-8d5f-8078-8006-9b2d734e4f71"><g class="fills" id="fills-52479b70-8d5f-8078-8006-9b2d734e4f71"><rect rx="0" ry="0" x="1670" y="570" transform="matrix(1.000000, 0.000000, 0.000000, 1.000000, 0.000000, 0.000000)" width="233" height="70" style="fill: rgb(211, 192, 192); fill-opacity: 1;"/></g></g></g></g></g></g></g></g><g id="shape-52479b70-8d5f-8078-8006-9b2d82fc296f"><g class="frame-container-wrapper"><g class="frame-container-blur"><g class="frame-container-shadows"><g fill="none"><g class="fills" id="fills-52479b70-8d5f-8078-8006-9b2d82fc296f"><rect rx="0" ry="0" x="1670" y="655" width="233" height="70" transform="matrix(1.000000, 0.000000, 0.000000, 1.000000, 0.000000, 0.000000)" class="frame-background"/></g><g class="frame-children"><g id="shape-52479b70-8d5f-8078-8006-9b2d82fc2970"><g class="fills" id="fills-52479b70-8d5f-8078-8006-9b2d82fc2970"><rect rx="0" ry="0" x="1670" y="655" transform="matrix(1.000000, 0.000000, 0.000000, 1.000000, 0.000000, 0.000000)" width="233" height="70" style="fill: rgb(211, 192, 192); fill-opacity: 1;"/></g></g></g></g></g></g></g></g><g id="shape-52479b70-8d5f-8078-8006-9b2d8c469268"><g class="frame-container-wrapper"><g class="frame-container-blur"><g class="frame-container-shadows"><g fill="none"><g class="fills" id="fills-52479b70-8d5f-8078-8006-9b2d8c469268"><rect rx="0" ry="0" x="1670" y="740" width="233" height="70" transform="matrix(1.000000, 0.000000, 0.000000, 1.000000, 0.000000, 0.000000)" class="frame-background"/></g><g class="frame-children"><g id="shape-52479b70-8d5f-8078-8006-9b2d8c469269"><g class="fills" id="fills-52479b70-8d5f-8078-8006-9b2d8c469269"><rect rx="0" ry="0" x="1670" y="740" transform="matrix(1.000000, 0.000000, 0.000000, 1.000000, 0.000000, 0.000000)" width="233" height="70" style="fill: rgb(211, 192, 192); fill-opacity: 1;"/></g></g></g></g></g></g></g></g><g id="shape-52479b70-8d5f-8078-8006-9b2d9420b4e1"><g class="frame-container-wrapper"><g class="frame-container-blur"><g class="frame-container-shadows"><g fill="none"><g class="fills" id="fills-52479b70-8d5f-8078-8006-9b2d9420b4e1"><rect rx="0" ry="0" x="1670" y="825" width="233" height="70" transform="matrix(1.000000, 0.000000, 0.000000, 1.000000, 0.000000, 0.000000)" class="frame-background"/></g><g class="frame-children"><g id="shape-52479b70-8d5f-8078-8006-9b2d9420b4e2"><g class="fills" id="fills-52479b70-8d5f-8078-8006-9b2d9420b4e2"><rect rx="0" ry="0" x="1670" y="825" transform="matrix(1.000000, 0.000000, 0.000000, 1.000000, 0.000000, 0.000000)" width="233" height="70" style="fill: rgb(211, 192, 192); fill-opacity: 1;"/></g></g></g></g></g></g></g></g><g id="shape-52479b70-8d5f-8078-8006-9b2db6ea337b"><g class="fills" id="fills-52479b70-8d5f-8078-8006-9b2db6ea337b"><rect rx="0" ry="0" x="382" y="130" transform="matrix(1.000000, 0.000000, 0.000000, 1.000000, 0.000000, 0.000000)" width="1272" height="950" style="fill: rgb(228, 126, 126); fill-opacity: 1;"/></g></g><g id="shape-52479b70-8d5f-8078-8006-9b2df6b3f8b9"><g class="fills" id="fills-52479b70-8d5f-8078-8006-9b2df6b3f8b9"><rect rx="0" ry="0" x="422" y="163" transform="matrix(1.000000, 0.000000, 0.000000, 1.000000, 0.000000, 0.000000)" width="1192.9999999999998" height="312" style="fill: rgb(177, 178, 181); fill-opacity: 1;"/></g></g><g id="shape-52479b70-8d5f-8078-8006-9b2e08c00734"><g class="fills" id="fills-52479b70-8d5f-8078-8006-9b2e08c00734"><rect rx="0" ry="0" x="422" y="515" transform="matrix(1.000000, 0.000000, 0.000000, 1.000000, 0.000000, 0.000000)" width="462" height="525" style="fill: rgb(177, 178, 181); fill-opacity: 1;"/></g></g><g id="shape-52479b70-8d5f-8078-8006-9b2e3a66d47f"><g class="fills" id="fills-52479b70-8d5f-8078-8006-9b2e3a66d47f"><rect rx="0" ry="0" x="925.0000000000001" y="516" transform="matrix(1.000000, 0.000000, 0.000000, 1.000000, 0.000000, 0.000000)" width="689.9999999999999" height="524" style="fill: rgb(177, 178, 181); fill-opacity: 1;"/></g></g></g></g></g></g></g></g></svg>